<svg id="_Layer_1" data-name="#Layer 1" xmlns="http://www.w3.org/2000/svg" xmlns:xlink="http://www.w3.org/1999/xlink" viewBox="0 0 55.6 55.6"><defs><style>.cls-1{fill:#fff}.cls-2{fill:#66696c}.cls-3{fill:#001115}.cls-4,.cls-5,.cls-6,.cls-8{fill:none;stroke:#fff}.cls-4,.cls-8{stroke-miterlimit:10}.cls-4{stroke-width:2.09px}.cls-5,.cls-6{stroke-linecap:round;stroke-linejoin:round;stroke-width:.52px}.cls-5{stroke-dasharray:2.4 2.4}.cls-7{fill:url(#Безымянный_градиент)}.cls-8{stroke-width:.3px}.cls-9{fill:url(#Безымянный_градиент_2)}.cls-10{fill:url(#Безымянный_градиент_3)}</style><radialGradient id="Безымянный_градиент" cx="17.45" cy="70.11" r="2.45" gradientTransform="matrix(1 0 0 -1 0 91.15)" gradientUnits="userSpaceOnUse"><stop offset="0" stop-color="#c8d3ed"/><stop offset="1" stop-color="#4b7cbb"/></radialGradient><radialGradient id="Безымянный_градиент_2" cx="43.5" cy="70.11" r="1.39" xlink:href="#Безымянный_градиент"/><radialGradient id="Безымянный_градиент_3" cx="30.51" cy="72.62" r="2.91" xlink:href="#Безымянный_градиент"/></defs><title>HYDROSPHERE_1</title><ellipse cx="27.9" cy="27.1" rx="25" ry="27.1"/><path class="cls-1" d="M13.87 51.39c-.1 0-.1-.1 0 0-.1-.1-.1-.2 0-.2.5-.1.9-.3 1.4-.4a.1.1 0 0 1 0 .2 10.26 10.26 0 0 0-1.4.4zm30.3-.2c-.5-.1-1-.3-1.4-.4l-.1-.1a.1.1 0 0 1 .1-.1c.5.1 1 .3 1.4.4.1.1.1.1 0 .2zm-27.5-.6c-.1-.1-.1-.2 0-.2.5-.1 1-.2 1.4-.3.1 0 .1 0 .1.1a.1.1 0 0 1-.1.1c-.4.1-.9.2-1.4.3zm24.7-.1c-.5-.1-1-.2-1.4-.3l-.1-.1L40 50c.5.1 1 .2 1.4.3a.14.14 0 0 1 0 .2zM19.57 50c-.1 0-.1-.1 0 0-.1-.1-.1-.2 0-.2.5-.1 1-.2 1.4-.3a.1.1 0 1 1 0 .2c-.4.1-.9.2-1.4.3zm18.9-.1l-1.5-.3-.1-.1.1-.1c.5.1 1 .2 1.4.3.2 0 .2 0 .1.2zm-16-.4c-.1 0-.1-.1 0 0-.1-.1-.1-.2 0-.2.5-.1 1-.1 1.5-.2.1 0 .1 0 .1.1s0 .1-.1.1a7.72 7.72 0 0 0-1.5.2zm13.1-.1c-.5-.1-1-.1-1.5-.2a.1.1 0 0 1-.1-.1l.1-.1c.5.1 1 .1 1.5.2.1 0 .1.1 0 .2zm-10.2-.3c-.1-.1-.1-.2 0-.2.5 0 1-.1 1.5-.1.1 0 .1 0 .1.1a.1.1 0 0 1-.1.1c-.5 0-1 .1-1.5.1zm7.3 0a7.57 7.57 0 0 0-1.5-.1c-.1 0-.1 0-.1-.1a.1.1 0 0 1 .1-.1c.5 0 1 .1 1.5.1 0 0 .1 0 0 .2zm-4.4-.2c-.1-.1-.1-.2 0-.2h1.5c.1 0 .1 0 .1.1a.1.1 0 0 1-.1.1h-1.5z" transform="translate(-.77 -1.29)"/><path class="cls-2" d="M2.27 29.09a26.4 26.4 0 0 0 52.8 0s-13.2-6.6-26.4-6.6-26.4 6.6-26.4 6.6z" transform="translate(-.77 -1.29)"/><path class="cls-1" d="M28.57 55.39a9.14 9.14 0 0 1-.7-1.4v-.1H28c.2.4.4.9.6 1.3a.14.14 0 0 1 0 .2zm-1.2-2.7a14.67 14.67 0 0 1-.6-1.4c0-.1 0-.1.1-.1a.1.1 0 0 1 .1.1 7.84 7.84 0 0 1 .5 1.4zM26.27 50a8.8 8.8 0 0 1-.5-1.5c0-.1 0-.1.1-.1a.1.1 0 0 1 .1.1 7.84 7.84 0 0 0 .5 1.4c-.1 0-.1.1-.2.1zm-.9-2.8a8.8 8.8 0 0 1-.5-1.5.1.1 0 0 1 .1-.1c.1 0 .1 0 .1.1.1.5.3.9.4 1.4a.1.1 0 0 1-.1.1zm-.7-2.8a11.31 11.31 0 0 1-.4-1.5.1.1 0 0 1 .1-.1c.1 0 .1 0 .1.1.1.5.2.9.3 1.4a.1.1 0 0 1-.1.1zm-.6-2.9a11.31 11.31 0 0 1-.4-1.5c0-.1 0-.1.1-.1s.1 0 .1.1c.1.5.2 1 .3 1.4l-.1.1zm-.6-2.9a9.92 9.92 0 0 1-.3-1.5.1.1 0 0 1 .1-.1c.1 0 .1 0 .1.1a7.84 7.84 0 0 1 .2 1.4c0 .1 0 .1-.1.1zm-.4-2.9a13.12 13.12 0 0 1-.3-1.5.1.1 0 1 1 .2 0c.1.5.1 1 .2 1.5zm-.4-2.9a10.4 10.4 0 0 1-.2-1.5c0-.1 0-.1.1-.1a.1.1 0 0 1 .1.1 7.72 7.72 0 0 0 .2 1.5zm-.3-2.9a10.4 10.4 0 0 1-.2-1.5c0-.1 0-.1.1-.1s.1 0 .1.1c0 .5.1 1 .1 1.5zm-.2-2.9c-.1 0-.1-.1 0 0-.1-.6-.1-1.1-.2-1.6 0-.1 0-.1.1-.1s.1 0 .1.1V27zm-.1-3c-.1-1-.1-1.6-.1-1.6s0-.1.1-.1.1 0 .1.1a4.58 4.58 0 0 0-.1 1.6z" transform="translate(-.77 -1.29)"/><path class="cls-1" d="M28.57 55.49a11.41 11.41 0 0 1-1.1-1.1v-.1h.1c.3.4.7.7 1 1.1.1 0 .1.1 0 .1zm-2-2.1a10.59 10.59 0 0 1-1-1.2v-.1h.1a10.63 10.63 0 0 0 .9 1.1c.1.1.1.1 0 .2zm-1.8-2.3a9.38 9.38 0 0 1-.9-1.2v-.1H24a8.34 8.34 0 0 1 .8 1.2c.1 0 .1 0 0 .1zm-1.6-2.4c-.1 0-.1-.1 0 0a9.13 9.13 0 0 1-.8-1.3v-.1h.1c.2.4.5.8.8 1.3a.1.1 0 0 0-.1.1zm-1.5-2.6c-.3-.5-.5-.9-.8-1.4v-.1H21a8.26 8.26 0 0 0 .7 1.3c.1.1.1.2 0 .2zm-1.3-2.6a9.14 9.14 0 0 1-.7-1.4V42h.1c.2.5.4.9.6 1.3.1.1.1.2 0 .2zm-1.2-2.7a14.67 14.67 0 0 1-.6-1.4.1.1 0 1 1 .2 0c.2.5.3.9.5 1.4 0-.1 0 0-.1 0zm-1-2.7a8.8 8.8 0 0 1-.5-1.5c0-.1 0-.1.1-.1s.1 0 .1.1c.1.5.3.9.4 1.4l-.1.1zm-.8-2.9c-.2-.5-.3-1-.5-1.5a.1.1 0 0 1 .1-.1c.1 0 .1 0 .1.1a7.37 7.37 0 0 0 .4 1.4c0 .1 0 .1-.1.1zm-.7-2.8a11.31 11.31 0 0 1-.4-1.5.1.1 0 0 1 .2 0c.1.5.2 1 .3 1.4a.1.1 0 0 1-.1.1zm-.6-2.9a8 8 0 0 1-.3-1.5.1.1 0 1 1 .2 0c.1.5.1 1 .2 1.4 0 .1 0 .1-.1.1zm-.4-2.9a10.4 10.4 0 0 1-.2-1.5c0-.1 0-.1.1-.1s.1 0 .1.1c0 .5.1 1 .1 1.5zm12.2 28.9a11.89 11.89 0 0 1-1.4-.6s-.1-.1 0-.1.1-.1.1 0c.8.4 1.3.6 1.3.6s.1 0 0 .1zm-2.7-1.2a5.67 5.67 0 0 1-1.3-.8s-.1-.1 0-.1.1-.1.1 0a14.8 14.8 0 0 0 1.3.8c0-.1 0 0-.1.1.1-.1.1 0 0 0zm-2.5-1.6l-1.2-.9v-.1h.1l1.2.9-.1.1zm-2.3-1.8c-.4-.3-.8-.7-1.2-1v-.1h.1a11 11 0 0 0 1.1 1c.1 0 .1 0 0 .1zm-2.1-2l-1.1-1.1v-.1h.1c.3.4.7.7 1 1.1.1 0 .1 0 0 .1zm-1.9-2.2a10.59 10.59 0 0 1-1-1.2v-.1h.1l.9 1.2c.1 0 .1 0 0 .1zm-1.7-2.4c-.3-.4-.6-.9-.9-1.3v-.1h.1a8.34 8.34 0 0 0 .8 1.2c.1.1.1.1 0 .2zm-1.5-2.5a9.14 9.14 0 0 1-.7-1.4v-.1h.1a8.26 8.26 0 0 0 .7 1.3c0 .1 0 .1-.1.2zm-1.3-2.7a5.34 5.34 0 0 1-.6-1.4c0-.1 0-.1.1-.1a.1.1 0 0 1 .1.1 7.84 7.84 0 0 1 .5 1.4c0-.1 0 0-.1 0zm-1-2.7a8.8 8.8 0 0 1-.5-1.5c0-.1 0-.1.1-.1a.1.1 0 0 1 .1.1c.1.5.3.9.4 1.4a.1.1 0 0 1-.1.1zm-.8-2.8a8.33 8.33 0 0 1-.4-1.5.1.1 0 0 1 .1-.1c.1 0 .1 0 .1.1.1.5.2 1 .3 1.4a.1.1 0 0 1-.1.1zm-.6-2.9a9.92 9.92 0 0 1-.3-1.5.1.1 0 0 1 .2 0c.1.5.1 1 .2 1.4 0 .1 0 .1-.1.1zm-.4-2.9a10.4 10.4 0 0 1-.2-1.5c0-.1 0-.1.1-.1s.1 0 .1.1c0 .5.1 1 .1 1.5z" transform="translate(-.77 -1.29)"/><path class="cls-1" d="M28.67 55.39a.1.1 0 0 1-.1-.1c.2-.4.4-.9.6-1.3 0 0 .1-.1.1 0s.1.1 0 .1a4.88 4.88 0 0 1-.6 1.3zm1.2-2.7a.1.1 0 0 1-.1-.1 5.78 5.78 0 0 0 .5-1.4l.1-.1.1.1c-.2.6-.4 1-.6 1.5zm1-2.7a.1.1 0 0 1-.1-.1c.2-.5.3-.9.5-1.4a.1.1 0 0 1 .1-.1l.1.1-.6 1.5zm.9-2.8a.1.1 0 0 1-.1-.1c.1-.5.3-.9.4-1.4a.1.1 0 0 1 .1-.1l.1.1c-.2.5-.3 1-.5 1.5zm.7-2.8a.1.1 0 0 1-.1-.1c.1-.5.2-.9.3-1.4l.1-.1.1.1c-.1.4-.2.9-.4 1.5.1-.1.1 0 0 0zm.7-2.9a.1.1 0 0 1-.1-.1c.1-.5.2-1 .3-1.4a.1.1 0 1 1 .2 0 11.31 11.31 0 0 1-.4 1.5zm.5-2.9a.1.1 0 0 1-.1-.1 7.84 7.84 0 0 0 .2-1.4c0-.1 0-.1.1-.1a.1.1 0 0 1 .1.1 4 4 0 0 1-.3 1.5zm.5-2.9a.1.1 0 0 1-.1-.1c.1-.5.1-1 .2-1.5a.1.1 0 0 1 .1-.1l.1.1c-.1.6-.2 1.1-.3 1.6zm.3-2.9a.1.1 0 0 1-.1-.1c.1-.5.1-1 .2-1.5 0-.1 0-.1.1-.1a.1.1 0 0 1 .1.1 9 9 0 0 1-.3 1.6zm.3-2.9a.1.1 0 0 1-.1-.1c0-.5.1-1 .1-1.5a.1.1 0 0 1 .1-.1c.1 0 .1 0 .1.1a4.68 4.68 0 0 1-.2 1.6zM35 27a8.53 8.53 0 0 1 0-1.6.1.1 0 1 1 .2 0A4.68 4.68 0 0 1 35 27c.1-.1.1 0 0 0zm.2-3c-.1-1-.1-1.6-.1-1.6s0-.1.1-.1a.1.1 0 0 1 .1.1c0 .1 0 .6-.1 1.6zm-5.93 31.49c-.1-.1-.1-.2 0-.2s.5-.2 1.3-.6h.1v.1a5.11 5.11 0 0 1-1.4.7zm2.7-1.2c-.1-.1-.1-.1 0-.2.4-.2.8-.5 1.3-.8h.1v.1a11 11 0 0 1-1.4.9zm2.5-1.6c-.1-.1-.1-.1-.1-.2l1.2-.9h.1v.1a10.59 10.59 0 0 1-1.2 1zm2.3-1.8c-.1-.1-.1-.1-.1-.2.4-.3.7-.7 1.1-1h.1v.1a11.41 11.41 0 0 1-1.1 1.1zm2.1-2c-.1-.1-.1-.1-.1-.2a11 11 0 0 0 1-1.1h.1v.1a10.59 10.59 0 0 1-1 1.2zm1.9-2.2l-.1-.1.9-1.2s.1-.1.1 0 .1.1 0 .1q-.3.45-.9 1.2zm1.7-2.4a.1.1 0 0 1-.1-.1c.3-.4.5-.8.8-1.2 0 0 .1-.1.1 0s.1.1 0 .1a12.25 12.25 0 0 1-.8 1.2zm1.5-2.5a.1.1 0 0 1-.1-.1 8.26 8.26 0 0 1 .7-1.3s.1-.1.1 0 .1.1 0 .1a5.62 5.62 0 0 1-.7 1.3zm1.3-2.7a.1.1 0 0 1-.1-.1 5.78 5.78 0 0 0 .5-1.4l.1-.1.1.1a6.71 6.71 0 0 1-.6 1.5zm1-2.7a.1.1 0 0 1-.1-.1 7.37 7.37 0 0 0 .4-1.4l.1-.1.1.1a4.42 4.42 0 0 1-.5 1.5zm.8-2.8a.1.1 0 0 1-.1-.1c.1-.5.2-.9.3-1.4l.1-.1.1.1a11.31 11.31 0 0 1-.4 1.5c.1-.1.1 0 0 0zm.6-2.9a.1.1 0 0 1-.1-.1 7.84 7.84 0 0 0 .2-1.4.1.1 0 0 1 .1-.1l.1.1a4 4 0 0 1-.3 1.5zm.4-2.9a.1.1 0 0 1-.1-.1c0-.5.1-1 .1-1.5a.1.1 0 1 1 .2 0 4.4 4.4 0 0 1-.2 1.6z" transform="translate(-.77 -1.29)"/><path class="cls-1" d="M28.57 55.49l-.1-.8a.1.1 0 0 1 .1-.1c.1 0 .1 0 .1.1v.5l.4-.4h.1v.1l-.6.6zm1.5-1.6c-.1-.1-.1-.1-.1-.2a10 10 0 0 1 1-1.1h.1v.1a10.59 10.59 0 0 1-1 1.2zm-1.5-.6l-.1-1.6a.1.1 0 0 1 .1-.1c.1 0 .1 0 .1.1l-.1 1.6zm3.4-1.6l-.1-.1.9-1.2h.1v.1a6.23 6.23 0 0 0-.9 1.2zm-3.4-1.3l-.1-1.6a.1.1 0 0 1 .1-.1c.1 0 .1 0 .1.1l-.1 1.6c.1-.1.1 0 0 0zm5.1-1.1a.1.1 0 0 1-.1-.1c.3-.4.5-.8.8-1.2 0 0 .1-.1.1 0s.1.1 0 .1c-.2.3-.5.7-.8 1.2zm-5.1-1.8l-.1-1.6a.1.1 0 0 1 .1-.1c.1 0 .1 0 .1.1l-.1 1.6c.1-.1.1 0 0 0zm6.6-.7a.1.1 0 0 1-.1-.1c.2-.4.5-.9.7-1.3 0 0 .1-.1.1 0s.1.1 0 .1c-.2.4-.4.8-.7 1.3zm-6.6-2.3l-.1-1.5c0-.1 0-.1.1-.1s.1 0 .1.1l-.1 1.5zm7.9-.3a.1.1 0 0 1-.1-.1c.2-.4.4-.9.6-1.3 0 0 .1-.1.1 0s.1.1 0 .1a6.87 6.87 0 0 1-.6 1.3c.1-.1.1 0 0 0zm-7.9-2.6l-.1-1.6c0-.1 0-.1.1-.1s.1 0 .1.1l-.1 1.6zm9.1-.1a.1.1 0 0 1-.1-.1 5.78 5.78 0 0 0 .5-1.4l.1-.1.1.1a4.71 4.71 0 0 1-.6 1.5zm1.1-2.8a.1.1 0 0 1-.1-.1c.2-.5.3-.9.5-1.4l.1-.1.1.1c-.2.6-.4 1-.6 1.5zm-10.2 0l-.1-1.6c0-.1 0-.1.1-.1s.1 0 .1.1l-.1 1.6c.1-.1.1 0 0 0zm11-2.7a.1.1 0 0 1-.1-.1c.1-.5.3-.9.4-1.4l.1-.1a.1.1 0 0 1 .1.1 5.27 5.27 0 0 1-.5 1.5c.1-.1.1 0 0 0zm-11-.3l-.1-1.6a.1.1 0 0 1 .1-.1c.1 0 .1 0 .1.1l-.1 1.6zm11.8-2.6a.1.1 0 0 1-.1-.1c.1-.5.2-.9.3-1.4l.1-.1.1.1a8.33 8.33 0 0 1-.4 1.5zm-11.8-.3l-.1-1.6a.1.1 0 0 1 .1-.1c.1 0 .1 0 .1.1l-.1 1.6zM41 30.19a.1.1 0 0 1-.1-.1 7.84 7.84 0 0 0 .2-1.4.1.1 0 0 1 .1-.1l.1.1-.3 1.5zm-12.4-.3l-.1-1.6c0-.1 0-.1.1-.1s.1 0 .1.1l-.1 1.6zm12.8-2.6a.1.1 0 0 1-.1-.1c.1-.5.1-1 .2-1.5 0-.1 0-.1.1-.1l.1.1a7.58 7.58 0 0 1-.3 1.6zM28.57 27l-.1-1.6c0-.1 0-.1.1-.1s.1 0 .1.1l-.1 1.6c.1-.1.1 0 0 0zm0-3l-.1-1.6c0-.1 0-.1.1-.1s.1 0 .1.1l-.1 1.6z" transform="translate(-.77 -1.29)"/><path class="cls-3" d="M2.27 29.09v6.6s13.2-6.6 26.4-6.6 26.4 6.6 26.4 6.6v-6.6s-13.2-6.6-26.4-6.6-26.4 6.6-26.4 6.6z" transform="translate(-.77 -1.29)"/><path class="cls-4" d="M2.27 29s13.2-6.5 26.3-6.5 26.3 6.5 26.3 6.5" transform="translate(-.77 -1.29)"/><path class="cls-1" d="M4.87 41.09c-.1-.1-.1-.2 0-.2.4-.2.9-.4 1.4-.6a.1.1 0 1 1 0 .2 4.23 4.23 0 0 1-1.4.6zm46.9-.2c-.5-.2-.9-.4-1.4-.6l-.1-.1.1-.1a7.84 7.84 0 0 0 1.4.5c.1.2.1.2 0 .3zM7.67 40c-.1-.1-.1-.2 0-.2.4-.2.9-.3 1.4-.5.1 0 .1 0 .1.1a.1.1 0 0 1-.1.1 12.13 12.13 0 0 1-1.4.5zm41.4-.1c-.5-.2-.9-.3-1.4-.5l-.1-.1a.1.1 0 0 1 .1-.1c.5.2.9.3 1.4.5.1 0 .1.1 0 .2zm-38.7-.8c-.1-.1-.1-.2 0-.2.5-.2.9-.3 1.4-.5a.1.1 0 1 1 0 .2c-.4.2-.9.3-1.4.5zm35.9-.2a7.37 7.37 0 0 0-1.4-.4l-.1-.1.1-.1a7.37 7.37 0 0 0 1.4.4c.1 0 .1.1 0 .2zm-33.1-.7c-.1-.1-.1-.2 0-.2.5-.1.9-.3 1.4-.4a.1.1 0 1 1 0 .2 10.26 10.26 0 0 0-1.4.4zm30.3-.1c-.5-.1-1-.3-1.4-.4l-.1-.1.1-.1c.5.1 1 .3 1.4.4.1 0 .1 0 0 .2.1-.1.1 0 0 0zM16 37.39c-.1-.1-.1-.2 0-.2.5-.1 1-.2 1.4-.3.1 0 .1 0 .1.1a.1.1 0 0 1-.1.1c-.4.1-.9.2-1.4.3zm24.7-.1c-.5-.1-1-.2-1.4-.3l-.1-.1a.1.1 0 0 1 .1-.1c.5.1 1 .2 1.4.3.1 0 .1.1 0 .2zm-21.8-.5c-.1-.1-.1-.2 0-.2.5-.1 1-.2 1.4-.3a.1.1 0 0 1 .1.1c0 .1 0 .1-.1.1-.4.1-.9.2-1.4.3zm18.9-.1l-1.5-.3-.1-.1a.1.1 0 0 1 .1-.1c.5.1 1 .2 1.4.3.2 0 .2.1.1.2zm-16-.4c-.1-.1-.1-.2 0-.2.5-.1 1-.1 1.5-.2a.1.1 0 0 1 .1.1c0 .1 0 .1-.1.1a7.72 7.72 0 0 0-1.5.2zm13.1-.1c-.5-.1-1-.1-1.5-.2-.1 0-.1 0-.1-.1a.1.1 0 0 1 .1-.1c.5.1 1 .1 1.5.2.1 0 .1.1 0 .2zm-10.2-.3c-.1-.1-.1-.2 0-.2.5 0 1-.1 1.5-.1.1 0 .1 0 .1.1a.1.1 0 0 1-.1.1 7.57 7.57 0 0 1-1.5.1zm7.3 0c-.5 0-1-.1-1.5-.1-.1 0-.1 0-.1-.1a.1.1 0 0 1 .1-.1c.5 0 1 .1 1.5.1.1 0 .1.1 0 .2zm-4.4-.1c-.1-.1-.1-.2 0-.2h1.5c.1 0 .1 0 .1.1s0 .1-.1.1h-.5a3.35 3.35 0 0 0-1.03 0zM7.67 46.59c-.1-.1-.1-.2 0-.2.4-.2.9-.3 1.4-.5.1 0 .1 0 .1.1a.1.1 0 0 1-.1.1 12.13 12.13 0 0 1-1.4.5zm41.4-.1c-.5-.2-.9-.3-1.4-.5l-.1-.1a.1.1 0 0 1 .1-.1c.5.2.9.3 1.4.5.1 0 .1.1 0 .2zm-38.7-.8c-.1-.1-.1-.2 0-.2.5-.2.9-.3 1.4-.5a.1.1 0 1 1 0 .2 12.13 12.13 0 0 0-1.4.5zm35.9-.2a7.37 7.37 0 0 0-1.4-.4l-.1-.1.1-.1c.5.1.9.3 1.4.4.1 0 .1.1 0 .2zm-33.1-.7c-.1-.1-.1-.2 0-.2.5-.1.9-.3 1.4-.4a.1.1 0 0 1 .1.1c0 .1 0 .1-.1.1a10.26 10.26 0 0 0-1.4.4zm30.3-.2c-.5-.1-1-.3-1.4-.4l-.1-.1a.1.1 0 0 1 .1-.1c.5.1 1 .3 1.4.4.1.1.1.1 0 .2zM16 44c-.1-.1-.1-.2 0-.2.5-.1 1-.2 1.4-.3.1 0 .1 0 .1.1a.1.1 0 0 1-.1.1c-.4.1-.9.2-1.4.3zm24.7-.1c-.5-.1-1-.2-1.4-.3l-.1-.1a.1.1 0 0 1 .1-.1c.5.1 1 .2 1.4.3.1 0 .1.1 0 .2zm-21.8-.5c-.1-.1-.1-.2 0-.2.5-.1 1-.2 1.4-.3a.1.1 0 0 1 .1.1c0 .1 0 .1-.1.1-.4.1-.9.2-1.4.3zm18.9-.1l-1.5-.3-.1-.1.1-.1c.5.1 1 .2 1.4.3.2 0 .2 0 .1.2.1-.1.1 0 0 0zm-16-.4c-.1-.1-.1-.2 0-.2.5-.1 1-.1 1.5-.2a.1.1 0 0 1 0 .2 7.72 7.72 0 0 0-1.5.2zm13.1-.1c-.5-.1-1-.1-1.5-.2a.1.1 0 0 1-.1-.1l.1-.1c.5.1 1 .1 1.5.2.1 0 .1.1 0 .2zm-10.2-.3c-.1-.1-.1-.2 0-.2.5 0 1-.1 1.5-.1.1 0 .1 0 .1.1a.1.1 0 0 1-.1.1c-.5 0-1 .1-1.5.1zm7.3 0c-.5 0-1-.1-1.5-.1-.1 0-.1 0-.1-.1a.1.1 0 0 1 .1-.1c.5 0 1 .1 1.5.1.1 0 .1 0 0 .2.1-.1.1 0 0 0zm-4.4-.2c-.1-.1-.1-.2 0-.2h1.5c.1 0 .1 0 .1.1a.1.1 0 0 1-.1.1h-1.5z" transform="translate(-.77 -1.29)"/><path class="cls-5" d="M4.57 34.59c4.1-1.7 13.1-5.1 22.3-5.5m4.3.1A68.05 68.05 0 0 1 53.37 35" transform="translate(-.77 -1.29)"/><path class="cls-6" d="M2.27 35.59a4.56 4.56 0 0 0 .8-.4m24.7-6.1h1.8m24.6 6.2a4.77 4.77 0 0 1 .8.4" transform="translate(-.77 -1.29)"/><path class="cls-1" d="M28.57 56.89a27.8 27.8 0 1 1 27.8-27.8 27.87 27.87 0 0 1-27.8 27.8zm0-52.7a24.9 24.9 0 1 0 24.9 24.9 25 25 0 0 0-24.9-24.9z" transform="translate(-.77 -1.29)"/><path class="cls-7" d="M14.47 17.19a4 4 0 0 0-1.6 1.8v3.3c.7 1.5 2.4 1 4.3.4 2.2-.6 4-1 3.4-3.2a4.08 4.08 0 0 0-1.8-2.4h-4.3z" transform="translate(-.77 -1.29)"/><path class="cls-8" d="M12.67 21.79c.6 2.2 2.3 1.6 4.5 1s4-1 3.4-3.1a4.06 4.06 0 0 0-5-2.9 4 4 0 0 0-2.9 5z" transform="translate(-.77 -1.29)"/><path class="cls-1" d="M14 20.19a1.45 1.45 0 0 1-.1-.6A1.27 1.27 0 0 1 14 19l.3-.6.3-.3c.1-.1.2-.1.3-.2a1.42 1.42 0 0 1 .6-.2h.6a4.2 4.2 0 0 1-.5.2c-.2 0-.3.2-.4.3s-.2.1-.2.2l-.2.2a2.19 2.19 0 0 0-.3.5c-.1.2-.2.3-.2.5a1.2 1.2 0 0 0-.3.59z" transform="translate(-.77 -1.29)"/><path class="cls-9" d="M38.47 17.19v5.2c.5.1 1 .3 1.5.4 2.2.6 4 1.2 4.5-1a4.18 4.18 0 0 0-1.8-4.6h-4.2z" transform="translate(-.77 -1.29)"/><path class="cls-8" d="M44.47 21.79c-.6 2.2-2.3 1.6-4.5 1s-4-1-3.4-3.1a4.06 4.06 0 0 1 5-2.9 4 4 0 0 1 2.9 5z" transform="translate(-.77 -1.29)"/><path class="cls-1" d="M37.77 19.79a.93.93 0 0 1 0-.6 1.42 1.42 0 0 1 .2-.6 2.09 2.09 0 0 1 .4-.6l.3-.2a.37.37 0 0 1 .3-.1 1.27 1.27 0 0 1 .6-.1 1.45 1.45 0 0 1 .6.1 4.2 4.2 0 0 1-.5.2c-.2 0-.3.1-.5.2s-.2 0-.2.1l-.2.2c-.2.1-.3.3-.4.4a1.38 1.38 0 0 1-.3.4 2.83 2.83 0 0 0-.3.6z" transform="translate(-.77 -1.29)"/><path class="cls-10" d="M31.37 14.09h-5.7a4.35 4.35 0 0 0-.7.6v6.4a9.25 9.25 0 0 0 3.5.5c2.8 0 5.1-.4 5.1-3.2a4.68 4.68 0 0 0-2.2-4.3z" transform="translate(-.77 -1.29)"/><path class="cls-8" d="M23.47 18.39c0 2.8 2.3 3.2 5.1 3.2s5.1-.4 5.1-3.2a5.1 5.1 0 1 0-10.2 0z" transform="translate(-.77 -1.29)"/><path class="cls-1" d="M25.27 17.39a1.45 1.45 0 0 1-.1-.6c0-.2.1-.4.1-.6a2.09 2.09 0 0 1 .4-.6l.3-.2c.1-.1.2-.1.3-.2a1.27 1.27 0 0 1 .6-.1 1.45 1.45 0 0 1 .6.1 4.2 4.2 0 0 1-.5.2c-.2 0-.3.2-.5.2a.35.35 0 0 0-.2.1l-.2.3c-.2.1-.2.3-.3.4s-.2.3-.2.5a5.2 5.2 0 0 0-.3.5z" transform="translate(-.77 -1.29)"/></svg>