<svg id="_Layer_1" data-name="#Layer 1" xmlns="http://www.w3.org/2000/svg" xmlns:xlink="http://www.w3.org/1999/xlink" viewBox="0 0 55.6 55.6"><defs><style>.cls-1{fill:#090e0e}.cls-2{fill:url(#Безымянный_градиент)}.cls-3{fill:url(#Безымянный_градиент_2)}.cls-4{fill:url(#Безымянный_градиент_3)}.cls-5{fill:url(#Безымянный_градиент_4)}.cls-6{fill:url(#Безымянный_градиент_5)}.cls-7{fill:url(#Безымянный_градиент_6)}.cls-8{fill:url(#Безымянный_градиент_7)}.cls-9{fill:url(#Безымянный_градиент_8)}.cls-10{fill:url(#Безымянный_градиент_9)}.cls-11{fill:url(#Безымянный_градиент_11)}.cls-12{fill:url(#Безымянный_градиент_12)}.cls-13{fill:url(#Безымянный_градиент_13)}.cls-14{fill:url(#Безымянный_градиент_14)}.cls-15{fill:url(#Безымянный_градиент_15)}.cls-16{fill:url(#Безымянный_градиент_16)}.cls-17{fill:#fff}</style><linearGradient id="Безымянный_градиент" x1="25.83" y1="666.84" x2="25.83" y2="3707.96" gradientTransform="matrix(1 0 0 -1 0 91.49)" gradientUnits="userSpaceOnUse"><stop offset="0" stop-color="#b64b42"/><stop offset="1" stop-color="#fff"/></linearGradient><linearGradient id="Безымянный_градиент_2" x1="29.07" y1="370.7" x2="29.07" y2="1522.25" gradientTransform="matrix(1 0 0 -1 -1.27 90.33)" xlink:href="#Безымянный_градиент"/><linearGradient id="Безымянный_градиент_3" x1="19.29" y1="637.86" x2="19.29" y2="3409.29" xlink:href="#Безымянный_градиент"/><linearGradient id="Безымянный_градиент_4" x1="22.52" y1="368.79" x2="22.52" y2="1512.98" gradientTransform="matrix(1 0 0 -1 -1.27 90.33)" xlink:href="#Безымянный_градиент"/><linearGradient id="Безымянный_градиент_5" x1="12.69" y1="476.7" x2="12.69" y2="2354.61" xlink:href="#Безымянный_градиент"/><linearGradient id="Безымянный_градиент_6" x1="15.92" y1="364.8" x2="15.92" y2="1512.65" gradientTransform="matrix(1 0 0 -1 -1.27 90.33)" xlink:href="#Безымянный_градиент"/><linearGradient id="Безымянный_градиент_7" x1="7.38" y1="3015.05" x2="7.38" y2="15056.88" xlink:href="#Безымянный_градиент"/><linearGradient id="Безымянный_градиент_8" x1="9.32" y1="358.22" x2="9.32" y2="1499.76" gradientTransform="matrix(1 0 0 -1 -1.27 90.33)" xlink:href="#Безымянный_градиент"/><linearGradient id="Безымянный_градиент_9" x1="32.1" y1="666.78" x2="32.1" y2="3707.49" xlink:href="#Безымянный_градиент"/><linearGradient id="Безымянный_градиент_11" x1="38.75" y1="641.76" x2="38.75" y2="3436.88" xlink:href="#Безымянный_градиент"/><linearGradient id="Безымянный_градиент_12" x1="35.72" y1="368.79" x2="35.72" y2="1512.98" gradientTransform="matrix(1 0 0 -1 -1.27 90.33)" xlink:href="#Безымянный_градиент"/><linearGradient id="Безымянный_градиент_13" x1="45.57" y1="475.76" x2="45.57" y2="2350.4" xlink:href="#Безымянный_градиент"/><linearGradient id="Безымянный_градиент_14" x1="42.27" y1="364.79" x2="42.27" y2="1512.65" gradientTransform="matrix(1 0 0 -1 -1.27 90.33)" xlink:href="#Безымянный_градиент"/><linearGradient id="Безымянный_градиент_15" x1="50.75" y1="3005.82" x2="50.75" y2="15003.79" xlink:href="#Безымянный_градиент"/><linearGradient id="Безымянный_градиент_16" x1="48.87" y1="358.23" x2="48.87" y2="1499.76" gradientTransform="matrix(1 0 0 -1 -1.27 90.33)" xlink:href="#Безымянный_градиент"/></defs><title>SPEED DRY_1</title><ellipse class="cls-1" cx="27.8" cy="27.5" rx="27.4" ry="26.7"/><path class="cls-2" d="M28.17 11.45v2.4a22.53 22.53 0 0 1 0 2.6 3.53 3.53 0 0 1-1.7 2.1 22.38 22.38 0 0 0-3.5 2.6 4.12 4.12 0 0 0-1.1 2.4v.6a1.27 1.27 0 0 0 .1.6 3.51 3.51 0 0 0 .6 1.4c1.2 1.5 2.8 2.2 4.1 3.1 1.4.9 2.3 2.2 1.8 3.8-.4 1.4-2 2.3-3.4 3.2a10.61 10.61 0 0 0-2 1.7 3.29 3.29 0 0 0-.8 2.5 6 6 0 0 0 2.4 4c1.2 1 2.4 1.7 3.3 2.5a2.63 2.63 0 0 1 1 1.4c.1.6 0 1.1.1 1.7v2.7-4.4a3.36 3.36 0 0 0-1-1.6c-1-.9-2.1-1.7-3.2-2.6a5.25 5.25 0 0 1-2.1-3.8c0-1.5 1.2-2.7 2.7-3.5 1.4-.9 3.2-1.6 3.9-3.6a3.41 3.41 0 0 0-.2-2.8 6.39 6.39 0 0 0-1.9-2.1c-1.4-1-3-1.8-3.7-2.9a5.9 5.9 0 0 1-.4-.8 1.49 1.49 0 0 0-.1-.6v-.35a2.72 2.72 0 0 1 .8-1.6 27.49 27.49 0 0 1 3.3-2.3 5.3 5.3 0 0 0 2.5-3.3 14 14 0 0 0 .1-2.8v-2.4h-1.6z" transform="translate(-1.27 -1.15)"/><path class="cls-3" d="M24.5 11.3v2.8l3.3-3.3 3.3 3.3v-2.8L27.8 8l-3.3 3.3z"/><path class="cls-4" d="M23 16.85h-1v4.55a4 4 0 0 1-.6 2.8 10.93 10.93 0 0 1-2.8 2.2 5.63 5.63 0 0 0-2.9 3.3 4.53 4.53 0 0 0 .2 2.3 4 4 0 0 0 1.6 1.8c1.2 1 2.7 1.6 3.8 2.6a3.2 3.2 0 0 1 .6 4c-.8 1.3-2.2 2-3.4 2.8-1.2.8-2.4 1.8-2.6 3.2a4.21 4.21 0 0 0 1.2 3.5 45.2 45.2 0 0 0 4.3 3.6c.2.2.4.3.5.5-.2-.2-.3-.4-.5-.5a45.2 45.2 0 0 1-4.3-3.6 4.16 4.16 0 0 1-1.1-3.4c.2-1.3 1.4-2.3 2.6-3 1.2-.8 2.6-1.4 3.5-2.8a3.64 3.64 0 0 0-.6-4.5 29.64 29.64 0 0 0-3.8-2.7 3.85 3.85 0 0 1-1.3-1.6 2.74 2.74 0 0 1-.1-2c.3-1.2 1.5-2.1 2.6-2.8a11.91 11.91 0 0 0 3.1-2.3 4.65 4.65 0 0 0 .9-3.2v-2.4c.1-1.55.1-2.35.1-2.35z" transform="translate(-1.27 -1.15)"/><path class="cls-5" d="M19.6 16.3v1.4l1.6-1.7 1.7 1.7v-1.4l-1.7-1.7-1.6 1.7z"/><path class="cls-6" d="M16.27 23.15h-.7v4.6a4.86 4.86 0 0 1-.5 2.9 9.34 9.34 0 0 1-2.8 2.3c-1.1.7-2.5 1.5-3 3.1a3.85 3.85 0 0 0 1.5 4.2c1.2 1 2.7 1.6 3.8 2.6a3.25 3.25 0 0 1 .8 4 8.42 8.42 0 0 1-2.8 2.5l.2.2a7 7 0 0 0 2.9-2.5 3.54 3.54 0 0 0-.8-4.4 44.44 44.44 0 0 0-3.8-2.7 3.27 3.27 0 0 1-1.3-3.7c.4-1.3 1.7-2.1 2.8-2.8a10.25 10.25 0 0 0 3-2.4 5.07 5.07 0 0 0 .7-3.2v-2.5z" transform="translate(-1.27 -1.15)"/><path class="cls-7" d="M13.4 22.4v1.1l1.2-1.3 1.3 1.3v-1.1l-1.3-1.2-1.2 1.2z"/><path class="cls-8" d="M9.07 29.45v4.7a5.14 5.14 0 0 1-.4 3 8.29 8.29 0 0 1-2.8 2.4 3 3 0 0 0-.7.5c.1.1.1.2.2.3.3-.2.5-.3.8-.5a7.88 7.88 0 0 0 2.9-2.5 5.39 5.39 0 0 0 .5-3.2v-4.7h-.5z" transform="translate(-1.27 -1.15)"/><path class="cls-9" d="M8.9 29.3v-.7l-.8-.8-.9.8v.7l.9-.8.8.8z"/><path class="cls-10" d="M28.17 11.45v2.4a14 14 0 0 0 .1 2.8 5.59 5.59 0 0 0 2.5 3.3 27.49 27.49 0 0 1 3.3 2.3 2.47 2.47 0 0 1 .8 1.6v.3a1.27 1.27 0 0 1-.1.6 3 3 0 0 1-.4.8c-.8 1.1-2.3 1.9-3.7 2.9a6.48 6.48 0 0 0-1.9 2.1 3.92 3.92 0 0 0-.2 2.8c.7 2 2.6 2.8 3.9 3.6 1.4.8 2.7 2 2.7 3.5a5.25 5.25 0 0 1-2.1 3.8c-1.1 1-2.3 1.8-3.2 2.6a2.75 2.75 0 0 0-1 1.6 9.63 9.63 0 0 0 0 1.7v2.7-2.7a10.28 10.28 0 0 1 .1-1.7 2.63 2.63 0 0 1 1-1.4c1-.8 2.2-1.6 3.3-2.5 1.1-.9 2.4-2.3 2.4-4a4.38 4.38 0 0 0-.8-2.5 10.61 10.61 0 0 0-2-1.7c-1.4-.9-3-1.8-3.4-3.2-.5-1.6.4-2.9 1.8-3.8 1.3-.9 3-1.6 4.1-3.1a3 3 0 0 0 .6-1.4 1.27 1.27 0 0 0 .1-.6v-.6a4.12 4.12 0 0 0-1.1-2.4 22.38 22.38 0 0 0-3.5-2.6 4.19 4.19 0 0 1-1.7-2.1 22.48 22.48 0 0 1 0-2.6v-2.4h-1.6z" transform="translate(-1.27 -1.15)"/><path class="cls-3" d="M24.5 11.3v2.8l3.3-3.3 3.3 3.3v-2.8L27.8 8l-3.3 3.3z"/><path class="cls-11" d="M35.17 16.85v4.55a4.4 4.4 0 0 0 .9 3.2 11.91 11.91 0 0 0 3.1 2.3c1.1.7 2.3 1.5 2.6 2.8a3.42 3.42 0 0 1-.1 2 5.09 5.09 0 0 1-1.3 1.6c-1.1.9-2.6 1.6-3.8 2.7a3.64 3.64 0 0 0-.6 4.5c.9 1.4 2.3 2 3.5 2.8 1.2.7 2.4 1.7 2.6 3a4.16 4.16 0 0 1-1.1 3.4 35.39 35.39 0 0 1-4.3 3.6l-.8.8a5.93 5.93 0 0 1 .8-.8c1-.9 2.8-1.8 4.3-3.6a4.32 4.32 0 0 0 1.2-3.5 4.88 4.88 0 0 0-2.6-3.2c-1.2-.8-2.6-1.5-3.4-2.8a3.21 3.21 0 0 1 .6-4 36.18 36.18 0 0 1 3.8-2.6 5.17 5.17 0 0 0 1.5-1.8 4.53 4.53 0 0 0 .2-2.3c-.4-1.7-1.8-2.5-2.9-3.3a10.93 10.93 0 0 1-2.8-2.2 3.47 3.47 0 0 1-.6-2.8v-4.5h-.8z" transform="translate(-1.27 -1.15)"/><path class="cls-12" d="M32.8 16.3v1.4l1.6-1.7 1.7 1.7v-1.4l-1.7-1.7-1.6 1.7z"/><path class="cls-13" d="M42.67 23.15H42v4.6a4.83 4.83 0 0 0 .7 3.2 11.75 11.75 0 0 0 3 2.4c1.1.7 2.4 1.5 2.8 2.8a3.27 3.27 0 0 1-1.3 3.7c-1.2 1-2.6 1.6-3.8 2.7a3.68 3.68 0 0 0-.8 4.4 8.3 8.3 0 0 0 2.8 2.5h.1a.35.35 0 0 1 .2-.1 7.55 7.55 0 0 1-2.8-2.5 3.22 3.22 0 0 1 .8-4c1.1-1 2.6-1.7 3.8-2.6a3.7 3.7 0 0 0 1.5-4.2c-.5-1.6-1.9-2.4-3-3.1a9.34 9.34 0 0 1-2.8-2.3 4.86 4.86 0 0 1-.5-2.9v-2.5z" transform="translate(-1.27 -1.15)"/><path class="cls-14" d="M42.2 23.5v-1.1L41 21.2l-1.2 1.2v1.1l1.2-1.3 1.2 1.3z"/><path class="cls-15" d="M49.07 29.45h-.5v4.7a5.39 5.39 0 0 0 .5 3.2 7.88 7.88 0 0 0 2.9 2.5 5.58 5.58 0 0 0 .8.5c.1-.1.1-.2.2-.3-.2-.2-.5-.3-.7-.5a8.29 8.29 0 0 1-2.8-2.4c-.6-.9-.4-2.1-.4-3v-2.5z" transform="translate(-1.27 -1.15)"/><path class="cls-16" d="M48.4 29.3v-.7l-.8-.8-.8.8v.7l.8-.8.8.8z"/><path class="cls-17" d="M29.07 56.75A27.8 27.8 0 1 1 56.87 29a27.87 27.87 0 0 1-27.8 27.8zm0-52.7A24.9 24.9 0 1 0 54 29 25 25 0 0 0 29.07 4.05z" transform="translate(-1.27 -1.15)"/></svg>