<svg id="_Layer_1" data-name="#Layer 1" xmlns="http://www.w3.org/2000/svg" xmlns:xlink="http://www.w3.org/1999/xlink" viewBox="0 0 56 56"><defs><style>.cls-1{fill:#090e0e}.cls-2{fill:#fff}.cls-3{fill:url(#Безымянный_градиент)}.cls-4{fill:url(#Безымянный_градиент_2)}.cls-5{fill:url(#Безымянный_градиент_3)}.cls-6{fill:url(#Безымянный_градиент_4)}.cls-7{fill:url(#Безымянный_градиент_5)}.cls-8{fill:url(#Безымянный_градиент_6)}.cls-9{fill:url(#Безымянный_градиент_7)}.cls-10{fill:url(#Безымянный_градиент_8)}</style><linearGradient id="Безымянный_градиент" x1="19.47" y1="1240.69" x2="19.47" y2="6037.94" gradientTransform="matrix(1 0 0 -1 0 89.82)" gradientUnits="userSpaceOnUse"><stop offset="0" stop-color="#699e5c"/><stop offset="1" stop-color="#fff"/></linearGradient><linearGradient id="Безымянный_градиент_2" x1="14.17" y1="312.27" x2="14.17" y2="1410.76" gradientTransform="matrix(1 0 0 -1 -1.37 88.97)" xlink:href="#Безымянный_градиент"/><linearGradient id="Безымянный_градиент_3" x1="39.32" y1="1221.77" x2="39.32" y2="5942.71" xlink:href="#Безымянный_градиент"/><linearGradient id="Безымянный_градиент_4" x1="44.67" y1="307.5" x2="44.67" y2="1386.29" gradientTransform="matrix(1 0 0 -1 -1.37 88.97)" xlink:href="#Безымянный_градиент"/><linearGradient id="Безымянный_градиент_5" x1="-29.54" y1="67.27" x2="6039.37" y2="67.27" xlink:href="#Безымянный_градиент"/><linearGradient id="Безымянный_градиент_6" x1="9.54" y1="72.57" x2="1422.05" y2="72.57" gradientTransform="matrix(1 0 0 -1 -1.37 88.97)" xlink:href="#Безымянный_градиент"/><linearGradient id="Безымянный_градиент_7" x1="-9.41" y1="67.27" x2="6041.79" y2="67.27" gradientTransform="matrix(1 0 0 -1 0 89.82)" gradientUnits="userSpaceOnUse"><stop offset="0" stop-color="#fff"/><stop offset="1" stop-color="#699e5c"/></linearGradient><linearGradient id="Безымянный_градиент_8" x1="40.23" y1="72.57" x2="1412.92" y2="72.57" gradientTransform="matrix(1 0 0 -1 -1.37 88.97)" xlink:href="#Безымянный_градиент_7"/></defs><title>SUPERSONIC_1</title><ellipse class="cls-1" cx="28" cy="27.6" rx="26.7" ry="27.4"/><path class="cls-2" d="M3.47 23.25c.1.2.3.4.4.6a8.6 8.6 0 0 0 3.6 2.3c.8.3 1.8.5 2.8.8a32.63 32.63 0 0 0 3.3.5 62.27 62.27 0 0 0 7.7.5c5.3.2 10.7.4 14.7.6s6.7.3 6.7.3v.3s-2.7.1-6.7.3-9.4.4-14.7.6l-8 .3a12.75 12.75 0 0 0-1.9-.1 12.86 12.86 0 0 1-1.9-.4 12.15 12.15 0 0 1-3.3-1.4A7.68 7.68 0 0 1 3 25.15a7.67 7.67 0 0 0 .47-1.9zm51.3 13.5a8.48 8.48 0 0 0-3.3-2c-.8-.3-1.8-.5-2.8-.8a32.62 32.62 0 0 0-3.3-.5 62.27 62.27 0 0 0-7.7-.5c-5.3-.2-10.7-.4-14.7-.6s-6.7-.3-6.7-.3v-.3s2.7-.1 6.7-.3 9.4-.4 14.7-.6l8-.3c.7 0 1.3.1 1.9.1a12.86 12.86 0 0 1 1.9.4 12.15 12.15 0 0 1 3.3 1.4 8 8 0 0 1 2.7 2.4 7.31 7.31 0 0 0-.7 1.9z" transform="translate(-1.37 -.85)"/><path class="cls-2" d="M29.37 56.85a28 28 0 1 1 28-28 28.08 28.08 0 0 1-28 28zm0-53a25 25 0 1 0 25 25 25 25 0 0 0-25-25z" transform="translate(-1.37 -.85)"/><path class="cls-3" d="M26.07 33.65h-1.7a2.92 2.92 0 0 0-.9.2 13.57 13.57 0 0 0-2.5.7c-.5.2-.9.4-1.4.6a10 10 0 0 0-1.4.8 11.17 11.17 0 0 0-2.4 1.9A11.21 11.21 0 0 0 14 40a2.35 2.35 0 0 0-.5 1 5.94 5.94 0 0 1-.4.8 3.93 3.93 0 0 0-.2.6v.1l1.2.5.3-.6a4.88 4.88 0 0 0 .3-.7c.2-.2.2-.6.5-.9a18.61 18.61 0 0 1 1.4-2 13.36 13.36 0 0 1 2.1-2 8.34 8.34 0 0 1 1.2-.8c.4-.2.8-.5 1.2-.7a12.23 12.23 0 0 1 2.4-1 4.54 4.54 0 0 1 1.8-.4c.6 0 .8-.1.8-.2z" transform="translate(-1.37 -.85)"/><path class="cls-4" d="M10.1 39.3l1.4 6.8 4-5.8-3 .6-2.3-1.6h-.1z"/><path class="cls-5" d="M34.37 33.65h-1.6v.1a1.76 1.76 0 0 1 .6.1 8.57 8.57 0 0 1 1.8.4 20.83 20.83 0 0 1 2.4 1c.4.2.8.5 1.2.7a8.34 8.34 0 0 1 1.2.8 13.36 13.36 0 0 1 2.1 2 12.14 12.14 0 0 1 1.4 2c.2.3.3.6.5.9a4.87 4.87 0 0 0 .3.7l.3.6 1.3-.5s-.1-.2-.3-.7a5.9 5.9 0 0 0-.4-.8c-.2-.3-.2-.7-.5-1a15.62 15.62 0 0 0-1.8-2.1 11.17 11.17 0 0 0-2.4-1.9 9.13 9.13 0 0 0-1.3-.8 8.43 8.43 0 0 0-1.4-.6 16.15 16.15 0 0 0-2.5-.7c-.27-.1-.6-.1-.9-.2z" transform="translate(-1.37 -.85)"/><path class="cls-6" d="M45.8 39.3l-2.3 1.6-2.8-.6v.2l3.9 5.6 1.3-6.8h-.1z"/><path class="cls-7" d="M14.27 18h-.1l-1.1.4v.1a3.93 3.93 0 0 0 .2.6 5.9 5.9 0 0 0 .4.8c.2.3.2.7.5 1A15.62 15.62 0 0 0 16 23a11.17 11.17 0 0 0 2.4 1.9 9.13 9.13 0 0 0 1.3.8 8.43 8.43 0 0 0 1.4.6 16.15 16.15 0 0 0 2.5.7 6.89 6.89 0 0 0 1.8.2h.7v-.1a4.18 4.18 0 0 1-.7-.1 8.57 8.57 0 0 1-1.8-.4 20.83 20.83 0 0 1-2.4-1c-.4-.2-.8-.5-1.2-.7a8.34 8.34 0 0 1-1.2-.8 13.36 13.36 0 0 1-2.1-2 12.14 12.14 0 0 1-1.4-2c-.2-.3-.3-.6-.5-.9a4.88 4.88 0 0 0-.3-.7 1.69 1.69 0 0 1-.23-.5z" transform="translate(-1.37 -.85)"/><path class="cls-8" d="M11.5 13l-1.4 6.7v.1l2.4-1.6 3 .5-4-5.7z"/><path class="cls-9" d="M32.77 27.15h.6a6.52 6.52 0 0 0 1.8-.2 13.57 13.57 0 0 0 2.5-.7c.5-.2.9-.4 1.4-.6a5.67 5.67 0 0 0 1.3-.8 11.17 11.17 0 0 0 2.4-1.9 8.75 8.75 0 0 0 1.8-2.1 2.35 2.35 0 0 0 .5-1 2 2 0 0 1 .4-.8 6 6 0 0 0 .3-.7l-1.2-.4h-.1c0 .1-.2.3-.3.5a4.88 4.88 0 0 0-.3.7 7.26 7.26 0 0 0-.5.9 12.14 12.14 0 0 1-1.4 2 13.36 13.36 0 0 1-2.1 2 8.34 8.34 0 0 1-1.2.8c-.4.2-.8.5-1.2.7a12.23 12.23 0 0 1-2.4 1 4.54 4.54 0 0 1-1.8.4 3.54 3.54 0 0 0-.6.1v.1z" transform="translate(-1.37 -.85)"/><path class="cls-10" d="M44.6 13l-3.9 5.6v.1l2.8-.5 2.5 1.6-1.4-6.8z"/></svg>